<mxfile host="app.diagrams.net" agent="Mozilla/5.0 (Macintosh; Intel Mac OS X 10_15_7) AppleWebKit/537.36 (KHTML, like Gecko) Chrome/137.0.0.0 Safari/537.36" version="27.2.0">
  <diagram name="Page-1" id="DJ70CeG8Y_h8gXMlq4S5">
    <mxGraphModel dx="2892" dy="1150" grid="1" gridSize="10" guides="1" tooltips="1" connect="1" arrows="1" fold="1" page="1" pageScale="1" pageWidth="413" pageHeight="291" math="0" shadow="0">
      <root>
        <mxCell id="0" />
        <mxCell id="1" parent="0" />
        <mxCell id="7w4KuKzqW3WrsNHFxm3d-1" value="" style="edgeStyle=orthogonalEdgeStyle;rounded=0;orthogonalLoop=1;jettySize=auto;exitX=0.5;exitY=1;exitDx=0;exitDy=0;entryX=0.496;entryY=-0.032;entryDx=0;entryDy=0;fontStyle=1;entryPerimeter=0;fontSize=16;labelBackgroundColor=none;textShadow=0;html=1;" parent="1" edge="1">
          <mxGeometry relative="1" as="geometry">
            <mxPoint x="-109" y="120" as="sourcePoint" />
            <mxPoint x="-109.47999999999979" y="208.08000000000004" as="targetPoint" />
            <Array as="points">
              <mxPoint x="-109" y="105" />
              <mxPoint x="-108" y="105" />
              <mxPoint x="-108" y="120" />
              <mxPoint x="-109" y="120" />
            </Array>
          </mxGeometry>
        </mxCell>
        <mxCell id="7w4KuKzqW3WrsNHFxm3d-2" value="" style="edgeStyle=orthogonalEdgeStyle;rounded=0;orthogonalLoop=1;jettySize=auto;exitX=1;exitY=0.5;exitDx=0;exitDy=0;entryX=0;entryY=0.5;entryDx=0;entryDy=0;fontStyle=1;fontSize=16;labelBackgroundColor=none;textShadow=0;html=1;" parent="1" source="7w4KuKzqW3WrsNHFxm3d-4" target="7w4KuKzqW3WrsNHFxm3d-14" edge="1">
          <mxGeometry relative="1" as="geometry" />
        </mxCell>
        <mxCell id="7w4KuKzqW3WrsNHFxm3d-3" value="" style="rounded=0;orthogonalLoop=1;jettySize=auto;exitX=0;exitY=0.5;exitDx=0;exitDy=0;entryX=1;entryY=0.5;entryDx=0;entryDy=0;edgeStyle=orthogonalEdgeStyle;fontStyle=1;fontSize=16;labelBackgroundColor=none;textShadow=0;html=1;" parent="1" source="7w4KuKzqW3WrsNHFxm3d-4" target="7w4KuKzqW3WrsNHFxm3d-7" edge="1">
          <mxGeometry relative="1" as="geometry" />
        </mxCell>
        <mxCell id="7w4KuKzqW3WrsNHFxm3d-4" value="Portable node testing options" style="shape=hexagon;perimeter=hexagonPerimeter2;fixedSize=1;fontStyle=1;fillColor=#e3c800;strokeColor=#B09500;fontColor=#000000;fontSize=16;labelBackgroundColor=none;textShadow=0;whiteSpace=wrap;html=1;" parent="1" vertex="1">
          <mxGeometry x="-180" y="30" width="126" height="98" as="geometry" />
        </mxCell>
        <mxCell id="7w4KuKzqW3WrsNHFxm3d-5" value="" style="edgeStyle=orthogonalEdgeStyle;rounded=0;orthogonalLoop=1;jettySize=auto;exitX=0.5;exitY=1;exitDx=0;exitDy=0;entryX=0.5;entryY=0;entryDx=0;entryDy=0;fontStyle=1;fontSize=16;labelBackgroundColor=none;textShadow=0;html=1;" parent="1" source="7w4KuKzqW3WrsNHFxm3d-7" target="7w4KuKzqW3WrsNHFxm3d-20" edge="1">
          <mxGeometry relative="1" as="geometry">
            <Array as="points">
              <mxPoint x="-289" y="98" />
              <mxPoint x="-220" y="98" />
              <mxPoint x="-220" y="118" />
            </Array>
            <mxPoint x="-261" y="88" as="sourcePoint" />
          </mxGeometry>
        </mxCell>
        <mxCell id="7w4KuKzqW3WrsNHFxm3d-6" value="" style="edgeStyle=orthogonalEdgeStyle;rounded=0;orthogonalLoop=1;jettySize=auto;exitX=0.5;exitY=1;exitDx=0;exitDy=0;entryX=0.5;entryY=0;entryDx=0;entryDy=0;fontStyle=1;fontSize=16;labelBackgroundColor=none;textShadow=0;html=1;" parent="1" target="7w4KuKzqW3WrsNHFxm3d-23" edge="1">
          <mxGeometry relative="1" as="geometry">
            <Array as="points">
              <mxPoint x="-289" y="98" />
              <mxPoint x="-360" y="98" />
              <mxPoint x="-360" y="110" />
              <mxPoint x="-360" y="110" />
            </Array>
            <mxPoint x="-289" y="88" as="sourcePoint" />
          </mxGeometry>
        </mxCell>
        <mxCell id="7w4KuKzqW3WrsNHFxm3d-7" value="FL" style="rounded=1;fontStyle=1;fillColor=#f0a30a;strokeColor=#BD7000;fontColor=#000000;fontSize=16;labelBackgroundColor=none;textShadow=0;whiteSpace=wrap;html=1;" parent="1" vertex="1">
          <mxGeometry x="-319" y="28" width="60" height="60" as="geometry" />
        </mxCell>
        <mxCell id="7w4KuKzqW3WrsNHFxm3d-8" value="" style="edgeStyle=orthogonalEdgeStyle;rounded=0;orthogonalLoop=1;jettySize=auto;exitX=0.5;exitY=1;exitDx=0;exitDy=0;fontStyle=1;fontSize=16;labelBackgroundColor=none;textShadow=0;html=1;" parent="1" source="7w4KuKzqW3WrsNHFxm3d-11" edge="1">
          <mxGeometry relative="1" as="geometry">
            <Array as="points">
              <mxPoint x="-109" y="307" />
              <mxPoint x="-80" y="307" />
              <mxPoint x="-80" y="327" />
            </Array>
            <mxPoint x="-157" y="262" as="sourcePoint" />
            <mxPoint x="-80" y="330" as="targetPoint" />
          </mxGeometry>
        </mxCell>
        <mxCell id="7w4KuKzqW3WrsNHFxm3d-9" value="" style="edgeStyle=orthogonalEdgeStyle;rounded=0;orthogonalLoop=1;jettySize=auto;fontStyle=1;fontSize=16;labelBackgroundColor=none;textShadow=0;html=1;" parent="1" edge="1">
          <mxGeometry relative="1" as="geometry">
            <mxPoint x="-109" y="268" as="sourcePoint" />
            <mxPoint x="140" y="327" as="targetPoint" />
            <Array as="points">
              <mxPoint x="-109" y="307" />
              <mxPoint x="140" y="307" />
              <mxPoint x="140" y="327" />
            </Array>
          </mxGeometry>
        </mxCell>
        <mxCell id="7w4KuKzqW3WrsNHFxm3d-10" value="" style="edgeStyle=orthogonalEdgeStyle;rounded=0;orthogonalLoop=1;jettySize=auto;exitX=0.5;exitY=1;exitDx=0;exitDy=0;entryX=0.5;entryY=0;entryDx=0;entryDy=0;fontStyle=1;fontSize=16;labelBackgroundColor=none;textShadow=0;html=1;" parent="1" edge="1">
          <mxGeometry relative="1" as="geometry">
            <mxPoint x="-92" y="307" as="sourcePoint" />
            <mxPoint x="-223.5" y="327" as="targetPoint" />
          </mxGeometry>
        </mxCell>
        <mxCell id="7w4KuKzqW3WrsNHFxm3d-11" value="Measurements" style="rounded=1;fontStyle=1;fillColor=#f0a30a;fontColor=#000000;strokeColor=#BD7000;fontSize=16;labelBackgroundColor=none;textShadow=0;whiteSpace=wrap;html=1;" parent="1" vertex="1">
          <mxGeometry x="-169" y="208" width="120" height="60" as="geometry" />
        </mxCell>
        <mxCell id="7w4KuKzqW3WrsNHFxm3d-12" value="" style="edgeStyle=orthogonalEdgeStyle;rounded=0;orthogonalLoop=1;jettySize=auto;exitX=0.5;exitY=1;exitDx=0;exitDy=0;entryX=0.5;entryY=0;entryDx=0;entryDy=0;fontStyle=1;fontSize=16;labelBackgroundColor=none;textShadow=0;html=1;" parent="1" source="7w4KuKzqW3WrsNHFxm3d-14" target="7w4KuKzqW3WrsNHFxm3d-18" edge="1">
          <mxGeometry relative="1" as="geometry">
            <Array as="points">
              <mxPoint x="51" y="98" />
              <mxPoint x="111" y="98" />
            </Array>
            <mxPoint x="131" y="98" as="targetPoint" />
          </mxGeometry>
        </mxCell>
        <mxCell id="7w4KuKzqW3WrsNHFxm3d-13" value="" style="edgeStyle=orthogonalEdgeStyle;rounded=0;orthogonalLoop=1;jettySize=auto;exitX=0.5;exitY=1;exitDx=0;exitDy=0;entryX=0.556;entryY=0.024;entryDx=0;entryDy=0;fontStyle=1;fontSize=16;labelBackgroundColor=none;textShadow=0;html=1;entryPerimeter=0;" parent="1" source="7w4KuKzqW3WrsNHFxm3d-14" target="7w4KuKzqW3WrsNHFxm3d-19" edge="1">
          <mxGeometry relative="1" as="geometry">
            <Array as="points">
              <mxPoint x="51" y="98" />
              <mxPoint x="1" y="98" />
            </Array>
          </mxGeometry>
        </mxCell>
        <mxCell id="7w4KuKzqW3WrsNHFxm3d-14" value="Flight" style="rounded=1;fontStyle=1;fillColor=#f0a30a;fontColor=#000000;strokeColor=#BD7000;fontSize=16;labelBackgroundColor=none;textShadow=0;whiteSpace=wrap;html=1;" parent="1" vertex="1">
          <mxGeometry x="21" y="28" width="60" height="60" as="geometry" />
        </mxCell>
        <mxCell id="7w4KuKzqW3WrsNHFxm3d-15" value="FL Logs" style="rounded=1;fillColor=#fad7ac;strokeColor=#b46504;fontStyle=1;fontSize=16;labelBackgroundColor=none;textShadow=0;whiteSpace=wrap;html=1;" parent="1" vertex="1">
          <mxGeometry x="92" y="327" width="86" height="53" as="geometry" />
        </mxCell>
        <mxCell id="7w4KuKzqW3WrsNHFxm3d-16" value="QGroudControl" style="rounded=1;fillColor=#fad7ac;strokeColor=#b46504;fontStyle=1;fontSize=16;labelBackgroundColor=none;textShadow=0;whiteSpace=wrap;html=1;" parent="1" vertex="1">
          <mxGeometry x="-151" y="330" width="126" height="60" as="geometry" />
        </mxCell>
        <mxCell id="7w4KuKzqW3WrsNHFxm3d-17" value="IPerf traffic" style="rounded=1;fillColor=#fad7ac;strokeColor=#b46504;fontStyle=1;fontSize=16;labelBackgroundColor=none;textShadow=0;whiteSpace=wrap;html=1;" parent="1" vertex="1">
          <mxGeometry x="-277" y="328" width="111" height="62" as="geometry" />
        </mxCell>
        <mxCell id="7w4KuKzqW3WrsNHFxm3d-18" value="GPS Spoofing" style="rounded=1;fillColor=#fad7ac;strokeColor=#b46504;fontStyle=1;fontSize=16;labelBackgroundColor=none;textShadow=0;whiteSpace=wrap;html=1;" parent="1" vertex="1">
          <mxGeometry x="61" y="118" width="99" height="52" as="geometry" />
        </mxCell>
        <mxCell id="7w4KuKzqW3WrsNHFxm3d-19" value="Normal Flight Path" style="rounded=1;fillColor=#fad7ac;strokeColor=#b46504;fontStyle=1;fontSize=16;labelBackgroundColor=none;textShadow=0;whiteSpace=wrap;html=1;" parent="1" vertex="1">
          <mxGeometry x="-50" y="118" width="91" height="52" as="geometry" />
        </mxCell>
        <mxCell id="7w4KuKzqW3WrsNHFxm3d-20" value="FL Baseline" style="rounded=1;fillColor=#fad7ac;strokeColor=#b46504;fontStyle=1;fontSize=16;labelBackgroundColor=none;textShadow=0;whiteSpace=wrap;html=1;" parent="1" vertex="1">
          <mxGeometry x="-270" y="118" width="99" height="62" as="geometry" />
        </mxCell>
        <mxCell id="7w4KuKzqW3WrsNHFxm3d-21" value="" style="edgeStyle=orthogonalEdgeStyle;rounded=0;orthogonalLoop=1;jettySize=auto;exitX=0.5;exitY=1;exitDx=0;exitDy=0;entryX=0.5;entryY=0;entryDx=0;entryDy=0;fontStyle=1;fontSize=16;labelBackgroundColor=none;textShadow=0;html=1;" parent="1" source="7w4KuKzqW3WrsNHFxm3d-23" target="7w4KuKzqW3WrsNHFxm3d-27" edge="1">
          <mxGeometry relative="1" as="geometry">
            <Array as="points">
              <mxPoint x="-339" y="188" />
              <mxPoint x="-384" y="188" />
            </Array>
          </mxGeometry>
        </mxCell>
        <mxCell id="7w4KuKzqW3WrsNHFxm3d-22" value="" style="edgeStyle=orthogonalEdgeStyle;rounded=0;orthogonalLoop=1;jettySize=auto;exitX=0.5;exitY=1;exitDx=0;exitDy=0;entryX=0.5;entryY=0;entryDx=0;entryDy=0;fontStyle=1;fontSize=16;labelBackgroundColor=none;textShadow=0;html=1;" parent="1" source="7w4KuKzqW3WrsNHFxm3d-23" target="7w4KuKzqW3WrsNHFxm3d-26" edge="1">
          <mxGeometry relative="1" as="geometry">
            <Array as="points">
              <mxPoint x="-339" y="188" />
              <mxPoint x="-299" y="188" />
            </Array>
          </mxGeometry>
        </mxCell>
        <mxCell id="7w4KuKzqW3WrsNHFxm3d-23" value="Network Disruption Attacks" style="rounded=1;fillColor=#fad7ac;strokeColor=#b46504;fontStyle=1;fontSize=16;labelBackgroundColor=none;textShadow=0;whiteSpace=wrap;html=1;" parent="1" vertex="1">
          <mxGeometry x="-420" y="118" width="121" height="62" as="geometry" />
        </mxCell>
        <mxCell id="7w4KuKzqW3WrsNHFxm3d-24" value="Time and&lt;br&gt;battery" style="rounded=1;fillColor=#fad9d5;strokeColor=#ae4132;fontStyle=1;fontSize=16;labelBackgroundColor=none;textShadow=0;whiteSpace=wrap;html=1;" parent="1" vertex="1">
          <mxGeometry x="-139" y="408" width="100" height="52" as="geometry" />
        </mxCell>
        <mxCell id="7w4KuKzqW3WrsNHFxm3d-25" value="Bandwidth and&amp;nbsp;&lt;br&gt;Bit-rate" style="rounded=1;fillColor=#fad9d5;strokeColor=#ae4132;fontStyle=1;fontSize=16;labelBackgroundColor=none;textShadow=0;whiteSpace=wrap;html=1;" parent="1" vertex="1">
          <mxGeometry x="-288" y="410" width="130" height="50" as="geometry" />
        </mxCell>
        <mxCell id="7w4KuKzqW3WrsNHFxm3d-26" value="No&lt;br&gt;Defense" style="rounded=1;fillColor=#fad9d5;strokeColor=#ae4132;fontStyle=1;fontSize=16;labelBackgroundColor=none;textShadow=0;whiteSpace=wrap;html=1;" parent="1" vertex="1">
          <mxGeometry x="-339" y="211" width="80" height="60" as="geometry" />
        </mxCell>
        <mxCell id="7w4KuKzqW3WrsNHFxm3d-27" value="Defense" style="rounded=1;fillColor=#fad9d5;strokeColor=#ae4132;fontStyle=1;fontSize=16;labelBackgroundColor=none;textShadow=0;whiteSpace=wrap;html=1;" parent="1" vertex="1">
          <mxGeometry x="-419" y="211" width="70" height="60" as="geometry" />
        </mxCell>
        <mxCell id="7w4KuKzqW3WrsNHFxm3d-28" value="&lt;font style=&quot;font-size: 15px;&quot;&gt;Evaluation /&lt;br&gt;Training&lt;br&gt;Times and Results&lt;/font&gt;" style="rounded=1;fillColor=#fad9d5;strokeColor=#ae4132;fontStyle=1;fontSize=16;labelBackgroundColor=none;textShadow=0;whiteSpace=wrap;html=1;" parent="1" vertex="1">
          <mxGeometry x="81" y="408" width="166" height="54" as="geometry" />
        </mxCell>
        <mxCell id="7w4KuKzqW3WrsNHFxm3d-29" value="Go back to indended path and resume mission" style="rounded=1;fillColor=#fad9d5;strokeColor=#ae4132;fontStyle=1;fontSize=16;labelBackgroundColor=none;textShadow=0;whiteSpace=wrap;html=1;" parent="1" vertex="1">
          <mxGeometry x="146" y="208" width="170" height="62" as="geometry" />
        </mxCell>
        <mxCell id="7w4KuKzqW3WrsNHFxm3d-30" value="Go to safe position and land" style="rounded=1;fillColor=#fad9d5;strokeColor=#ae4132;fontStyle=1;fontSize=16;labelBackgroundColor=none;textShadow=0;whiteSpace=wrap;html=1;" parent="1" vertex="1">
          <mxGeometry x="13" y="208" width="119" height="62" as="geometry" />
        </mxCell>
        <mxCell id="7w4KuKzqW3WrsNHFxm3d-31" value="" style="edgeStyle=orthogonalEdgeStyle;rounded=0;orthogonalLoop=1;jettySize=auto;fontStyle=1;fontSize=16;labelBackgroundColor=none;textShadow=0;html=1;" parent="1" edge="1">
          <mxGeometry relative="1" as="geometry">
            <Array as="points">
              <mxPoint x="117" y="190" />
              <mxPoint x="71" y="190" />
            </Array>
            <mxPoint x="117" y="170" as="sourcePoint" />
            <mxPoint x="71" y="208" as="targetPoint" />
          </mxGeometry>
        </mxCell>
        <mxCell id="7w4KuKzqW3WrsNHFxm3d-32" value="" style="edgeStyle=orthogonalEdgeStyle;rounded=0;orthogonalLoop=1;jettySize=auto;exitX=0.564;exitY=1;exitDx=0;exitDy=0;entryX=0.5;entryY=0;entryDx=0;entryDy=0;fontStyle=1;fontSize=16;labelBackgroundColor=none;textShadow=0;html=1;exitPerimeter=0;" parent="1" source="7w4KuKzqW3WrsNHFxm3d-18" edge="1">
          <mxGeometry relative="1" as="geometry">
            <Array as="points">
              <mxPoint x="117" y="173" />
              <mxPoint x="117" y="190" />
              <mxPoint x="227" y="190" />
            </Array>
            <mxPoint x="94.13300000000004" y="173.50800000000004" as="sourcePoint" />
            <mxPoint x="227.00000000000023" y="210" as="targetPoint" />
          </mxGeometry>
        </mxCell>
        <mxCell id="7w4KuKzqW3WrsNHFxm3d-33" value="" style="edgeStyle=orthogonalEdgeStyle;rounded=0;orthogonalLoop=1;jettySize=auto;exitX=0.567;exitY=1.008;exitDx=0;exitDy=0;entryX=0.526;entryY=-0.042;entryDx=0;entryDy=0;fontStyle=1;fontSize=16;labelBackgroundColor=none;textShadow=0;html=1;entryPerimeter=0;exitPerimeter=0;" parent="1" edge="1">
          <mxGeometry relative="1" as="geometry">
            <Array as="points">
              <mxPoint x="-379" y="280" />
              <mxPoint x="-413" y="280" />
            </Array>
            <mxPoint x="-379.30999999999995" y="273.48" as="sourcePoint" />
            <mxPoint x="-412.654" y="296.81600000000003" as="targetPoint" />
          </mxGeometry>
        </mxCell>
        <mxCell id="7w4KuKzqW3WrsNHFxm3d-34" value="Anycast" style="rounded=1;fillColor=#ffe6cc;strokeColor=#d79b00;fontStyle=1;fontSize=16;labelBackgroundColor=none;textShadow=0;whiteSpace=wrap;html=1;" parent="1" vertex="1">
          <mxGeometry x="-370" y="298" width="71" height="52" as="geometry" />
        </mxCell>
        <mxCell id="7w4KuKzqW3WrsNHFxm3d-35" value="Rate Limiting" style="rounded=1;fillColor=#ffe6cc;strokeColor=#d79b00;fontStyle=1;fontSize=16;labelBackgroundColor=none;textShadow=0;whiteSpace=wrap;html=1;" parent="1" vertex="1">
          <mxGeometry x="-450" y="297" width="71" height="52" as="geometry" />
        </mxCell>
        <mxCell id="7w4KuKzqW3WrsNHFxm3d-36" value="" style="edgeStyle=orthogonalEdgeStyle;rounded=0;orthogonalLoop=1;jettySize=auto;exitX=0.5;exitY=1;exitDx=0;exitDy=0;entryX=0.5;entryY=0;entryDx=0;entryDy=0;fontStyle=1;fontSize=16;labelBackgroundColor=none;textShadow=0;html=1;" parent="1" source="7w4KuKzqW3WrsNHFxm3d-38" target="7w4KuKzqW3WrsNHFxm3d-40" edge="1">
          <mxGeometry relative="1" as="geometry">
            <Array as="points">
              <mxPoint x="-510" y="180" />
              <mxPoint x="-510" y="188" />
              <mxPoint x="-555" y="188" />
            </Array>
          </mxGeometry>
        </mxCell>
        <mxCell id="7w4KuKzqW3WrsNHFxm3d-37" value="" style="edgeStyle=orthogonalEdgeStyle;rounded=0;orthogonalLoop=1;jettySize=auto;exitX=0.5;exitY=1;exitDx=0;exitDy=0;entryX=0.5;entryY=0;entryDx=0;entryDy=0;fontStyle=1;fontSize=16;labelBackgroundColor=none;textShadow=0;html=1;" parent="1" source="7w4KuKzqW3WrsNHFxm3d-38" target="7w4KuKzqW3WrsNHFxm3d-39" edge="1">
          <mxGeometry relative="1" as="geometry">
            <Array as="points">
              <mxPoint x="-510" y="188" />
              <mxPoint x="-470" y="188" />
            </Array>
          </mxGeometry>
        </mxCell>
        <mxCell id="7w4KuKzqW3WrsNHFxm3d-38" value="Data Poisioning Attacks" style="rounded=1;fillColor=#fad7ac;strokeColor=#b46504;fontStyle=1;fontSize=16;labelBackgroundColor=none;textShadow=0;whiteSpace=wrap;html=1;" parent="1" vertex="1">
          <mxGeometry x="-560" y="118" width="110" height="62" as="geometry" />
        </mxCell>
        <mxCell id="7w4KuKzqW3WrsNHFxm3d-39" value="No&lt;br&gt;Defense" style="rounded=1;fillColor=#fad9d5;strokeColor=#ae4132;fontStyle=1;fontSize=16;labelBackgroundColor=none;textShadow=0;whiteSpace=wrap;html=1;" parent="1" vertex="1">
          <mxGeometry x="-510" y="211" width="80" height="60" as="geometry" />
        </mxCell>
        <mxCell id="7w4KuKzqW3WrsNHFxm3d-40" value="Defense" style="rounded=1;fillColor=#fad9d5;strokeColor=#ae4132;fontStyle=1;fontSize=16;labelBackgroundColor=none;textShadow=0;whiteSpace=wrap;html=1;" parent="1" vertex="1">
          <mxGeometry x="-590" y="211" width="70" height="60" as="geometry" />
        </mxCell>
        <mxCell id="7w4KuKzqW3WrsNHFxm3d-41" value="" style="edgeStyle=orthogonalEdgeStyle;rounded=0;orthogonalLoop=1;jettySize=auto;entryX=0.5;entryY=0;entryDx=0;entryDy=0;exitX=0.5;exitY=1;exitDx=0;exitDy=0;fontStyle=1;fontSize=16;labelBackgroundColor=none;textShadow=0;html=1;" parent="1" target="7w4KuKzqW3WrsNHFxm3d-44" edge="1">
          <mxGeometry relative="1" as="geometry">
            <Array as="points">
              <mxPoint x="-554" y="271" />
              <mxPoint x="-554" y="281" />
              <mxPoint x="-615" y="281" />
            </Array>
            <mxPoint x="-555" y="271" as="sourcePoint" />
            <mxPoint x="-619.05" y="297.41599999999994" as="targetPoint" />
          </mxGeometry>
        </mxCell>
        <mxCell id="7w4KuKzqW3WrsNHFxm3d-42" value="" style="edgeStyle=orthogonalEdgeStyle;rounded=0;orthogonalLoop=1;jettySize=auto;exitX=0.516;exitY=1.007;exitDx=0;exitDy=0;entryX=0.559;entryY=0.002;entryDx=0;entryDy=0;exitPerimeter=0;entryPerimeter=0;fontStyle=1;fontSize=16;labelBackgroundColor=none;textShadow=0;html=1;" parent="1" source="7w4KuKzqW3WrsNHFxm3d-40" target="7w4KuKzqW3WrsNHFxm3d-43" edge="1">
          <mxGeometry relative="1" as="geometry">
            <Array as="points">
              <mxPoint x="-554" y="281" />
              <mxPoint x="-510" y="281" />
              <mxPoint x="-510" y="293" />
            </Array>
            <mxPoint x="-553" y="271" as="sourcePoint" />
            <mxPoint x="-499" y="291" as="targetPoint" />
          </mxGeometry>
        </mxCell>
        <mxCell id="7w4KuKzqW3WrsNHFxm3d-43" value="Adversarial Training" style="rounded=1;fillColor=#ffe6cc;strokeColor=#d79b00;fontStyle=1;fontSize=16;labelBackgroundColor=none;textShadow=0;whiteSpace=wrap;html=1;" parent="1" vertex="1">
          <mxGeometry x="-560" y="299" width="90" height="50" as="geometry" />
        </mxCell>
        <mxCell id="7w4KuKzqW3WrsNHFxm3d-44" value="Differential Privacy" style="rounded=1;fillColor=#ffe6cc;strokeColor=#d79b00;fontStyle=1;fontSize=16;labelBackgroundColor=none;textShadow=0;whiteSpace=wrap;html=1;" parent="1" vertex="1">
          <mxGeometry x="-660" y="297" width="90" height="52" as="geometry" />
        </mxCell>
        <mxCell id="7w4KuKzqW3WrsNHFxm3d-45" value="" style="endArrow=classic;rounded=0;entryX=0.5;entryY=0;entryDx=0;entryDy=0;fontStyle=1;fontSize=16;labelBackgroundColor=none;textShadow=0;html=1;" parent="1" edge="1">
          <mxGeometry width="50" height="50" relative="1" as="geometry">
            <mxPoint x="-325" y="98" as="sourcePoint" />
            <mxPoint x="-505" y="118" as="targetPoint" />
            <Array as="points">
              <mxPoint x="-505" y="98" />
            </Array>
          </mxGeometry>
        </mxCell>
        <mxCell id="7w4KuKzqW3WrsNHFxm3d-46" value="CPU Logger" style="rounded=1;fillColor=#fad7ac;strokeColor=#b46504;fontStyle=1;fontSize=16;labelBackgroundColor=none;textShadow=0;whiteSpace=wrap;html=1;" parent="1" vertex="1">
          <mxGeometry x="-11" y="327" width="85" height="60" as="geometry" />
        </mxCell>
        <mxCell id="7w4KuKzqW3WrsNHFxm3d-47" value="" style="edgeStyle=orthogonalEdgeStyle;rounded=0;orthogonalLoop=1;jettySize=auto;exitX=0.5;exitY=1;exitDx=0;exitDy=0;fontStyle=1;fontSize=16;labelBackgroundColor=none;textShadow=0;html=1;entryX=0.547;entryY=-0.016;entryDx=0;entryDy=0;entryPerimeter=0;" parent="1" edge="1">
          <mxGeometry relative="1" as="geometry">
            <Array as="points">
              <mxPoint x="-109" y="307" />
              <mxPoint x="36" y="307" />
            </Array>
            <mxPoint x="-109" y="267" as="sourcePoint" />
            <mxPoint x="36.49499999999989" y="325.0400000000001" as="targetPoint" />
          </mxGeometry>
        </mxCell>
        <mxCell id="7w4KuKzqW3WrsNHFxm3d-48" value="&lt;font style=&quot;font-size: 15px;&quot;&gt;Memory and CPU Usage&lt;/font&gt;" style="rounded=1;fillColor=#fad9d5;strokeColor=#ae4132;fontStyle=1;fontSize=16;labelBackgroundColor=none;textShadow=0;whiteSpace=wrap;html=1;" parent="1" vertex="1">
          <mxGeometry x="-25" y="408" width="96" height="52" as="geometry" />
        </mxCell>
        <mxCell id="7w4KuKzqW3WrsNHFxm3d-49" value="" style="endArrow=classic;rounded=0;entryX=0.5;entryY=0;entryDx=0;entryDy=0;fontStyle=1;fontSize=16;labelBackgroundColor=none;textShadow=0;html=1;" parent="1" edge="1">
          <mxGeometry width="50" height="50" relative="1" as="geometry">
            <mxPoint x="-222" y="390" as="sourcePoint" />
            <mxPoint x="-222" y="410" as="targetPoint" />
          </mxGeometry>
        </mxCell>
        <mxCell id="7w4KuKzqW3WrsNHFxm3d-50" value="" style="endArrow=classic;rounded=0;exitX=0.517;exitY=0.991;exitDx=0;exitDy=0;exitPerimeter=0;entryX=0.5;entryY=0;entryDx=0;entryDy=0;fontStyle=1;fontSize=16;labelBackgroundColor=none;textShadow=0;html=1;" parent="1" edge="1">
          <mxGeometry width="50" height="50" relative="1" as="geometry">
            <mxPoint x="-88.21000000000004" y="389" as="sourcePoint" />
            <mxPoint x="-88.21000000000004" y="410" as="targetPoint" />
          </mxGeometry>
        </mxCell>
        <mxCell id="7w4KuKzqW3WrsNHFxm3d-51" value="" style="endArrow=classic;rounded=0;entryX=0.5;entryY=0;entryDx=0;entryDy=0;fontStyle=1;fontSize=16;labelBackgroundColor=none;textShadow=0;html=1;" parent="1" edge="1">
          <mxGeometry width="50" height="50" relative="1" as="geometry">
            <mxPoint x="33" y="387" as="sourcePoint" />
            <mxPoint x="32.90999999999997" y="408" as="targetPoint" />
          </mxGeometry>
        </mxCell>
        <mxCell id="7w4KuKzqW3WrsNHFxm3d-52" value="" style="edgeStyle=orthogonalEdgeStyle;rounded=0;orthogonalLoop=1;jettySize=auto;exitX=0.575;exitY=1.016;exitDx=0;exitDy=0;entryX=0.559;entryY=0.002;entryDx=0;entryDy=0;exitPerimeter=0;entryPerimeter=0;fontStyle=1;fontSize=16;labelBackgroundColor=none;textShadow=0;html=1;" parent="1" edge="1">
          <mxGeometry relative="1" as="geometry">
            <Array as="points">
              <mxPoint x="-379" y="280" />
              <mxPoint x="-335" y="280" />
              <mxPoint x="-335" y="298" />
            </Array>
            <mxPoint x="-378.75" y="271.96000000000004" as="sourcePoint" />
            <mxPoint x="-335.5" y="298" as="targetPoint" />
          </mxGeometry>
        </mxCell>
        <mxCell id="7w4KuKzqW3WrsNHFxm3d-53" value="" style="endArrow=classic;rounded=0;entryX=0.5;entryY=0;entryDx=0;entryDy=0;fontStyle=1;fontSize=16;labelBackgroundColor=none;textShadow=0;html=1;" parent="1" edge="1">
          <mxGeometry width="50" height="50" relative="1" as="geometry">
            <mxPoint x="140" y="379" as="sourcePoint" />
            <mxPoint x="140" y="408" as="targetPoint" />
          </mxGeometry>
        </mxCell>
      </root>
    </mxGraphModel>
  </diagram>
</mxfile>
